<?xml version="1.0" encoding="utf-8"?>
<!-- Generator: Adobe Illustrator 16.0.0, SVG Export Plug-In . SVG Version: 6.00 Build 0)  -->
<!DOCTYPE svg PUBLIC "-//W3C//DTD SVG 1.1//EN" "http://www.w3.org/Graphics/SVG/1.1/DTD/svg11.dtd">
<svg version="1.1" id="Layer_1" xmlns="http://www.w3.org/2000/svg" xmlns:xlink="http://www.w3.org/1999/xlink" x="0px" y="0px"
	 width="173.125px" height="234px" viewBox="0 0 173.125 234" enable-background="new 0 0 173.125 234" xml:space="preserve">
<g>
	<g>
		<path fill="#C1C8C5" stroke="#000000" stroke-miterlimit="10" d="M28.625,0.5c-6.627,0-13,4.373-13,11v194c0,6.627,6.373,13,13,13
			h133c6.627,0,11-6.373,11-13V48l-47.5-47.5H28.625z"/>
	</g>
</g>
<g>
	<path fill="#C1C8C5" d="M137.587,48c-6.289,0-12.462-6.005-12.462-12.124V1.207L171.918,48H137.587z"/>
	<path d="M125.125,2.414L170.711,48h-33.124c-6.037,0-12.462-6.258-12.462-12.124V2 M124.125,0v35.876
		c0,6.559,6.965,13.124,13.462,13.124h35.538L124.125,0L124.125,0z"/>
</g>
<g>
	<g>
		<path fill="#F0F0F0" stroke="#000000" stroke-miterlimit="10" d="M13.625,15.5c-6.627,0-13,4.373-13,11v194
			c0,6.627,6.373,13,13,13h133c6.627,0,11-6.373,11-13V63l-47.5-47.5H13.625z"/>
	</g>
</g>
<rect x="9.125" y="207" fill="#C1C8C5" width="139" height="9"/>
<rect x="9.125" y="175" fill="#C1C8C5" width="139" height="9"/>
<rect x="9.125" y="34" fill="#C1C8C5" width="100" height="21"/>
<rect x="9.125" y="143" fill="#C1C8C5" width="139" height="9"/>
<rect x="9.125" y="159" fill="#C1C8C5" width="139" height="9"/>
<rect x="9.125" y="191" fill="#C1C8C5" width="139" height="9"/>
<rect x="9.125" y="127" fill="#C1C8C5" width="139" height="9"/>
<rect x="9.125" y="95" fill="#C1C8C5" width="139" height="9"/>
<rect x="9.125" y="63" fill="#C1C8C5" width="139" height="9"/>
<rect x="9.125" y="79" fill="#C1C8C5" width="139" height="9"/>
<rect x="9.125" y="111" fill="#C1C8C5" width="139" height="9"/>
<g>
	<path fill="#F0F0F0" d="M122.587,63c-6.289,0-12.462-6.005-12.462-12.124V16.207L156.918,63H122.587z"/>
	<path d="M110.125,17.414L155.711,63h-33.124c-6.037,0-12.462-6.258-12.462-12.124V17 M109.125,15v35.876
		c0,6.559,6.965,13.124,13.462,13.124h35.538L109.125,15L109.125,15z"/>
</g>
</svg>
