<?xml version="1.0" encoding="utf-8"?>
<!-- Generator: Adobe Illustrator 16.0.0, SVG Export Plug-In . SVG Version: 6.00 Build 0)  -->
<!DOCTYPE svg PUBLIC "-//W3C//DTD SVG 1.1//EN" "http://www.w3.org/Graphics/SVG/1.1/DTD/svg11.dtd">
<svg version="1.1" id="Layer_1" xmlns="http://www.w3.org/2000/svg" xmlns:xlink="http://www.w3.org/1999/xlink" x="0px" y="0px"
	 width="1270px" height="910px" viewBox="0 0 1270 910" enable-background="new 0 0 1270 910" xml:space="preserve">
<path fill="#C1C8C5" d="M397,645.47c0,7.722-5.882,13.53-13.605,13.53h-79.243c-7.723,0-14.152-5.809-14.152-13.53v-13.984
	c0-7.723,6.429-13.485,14.152-13.485h79.243c7.724,0,13.605,5.763,13.605,13.485V645.47z"/>
<path fill="#C1C8C5" d="M437,896.016c0,7.724-6.261,13.984-13.984,13.984H13.984C6.261,910,0,903.739,0,896.016V648.984
	C0,641.261,6.261,635,13.984,635h409.031c7.724,0,13.984,6.261,13.984,13.984V896.016z"/>
<g>
	<g>
		<path fill="#17BBC8" d="M261.5,665c-6.627,0-12.5,4.873-12.5,11.5v194c0,6.627,5.873,12.5,12.5,12.5h133
			c6.627,0,11.5-5.873,11.5-12.5V713l-48-48H261.5z"/>
	</g>
</g>
<path fill="#FFC63E" d="M358,700.876c0,6.559,5.964,12.124,12.462,12.124H406l-48-48V700.876z"/>
<path fill="#C1C8C5" d="M397,336.47c0,7.722-5.882,13.53-13.605,13.53h-79.242c-7.724,0-14.152-5.809-14.152-13.53v-13.984
	c0-7.723,6.429-13.485,14.152-13.485h79.242c7.724,0,13.605,5.763,13.605,13.485V336.47z"/>
<path fill="#C1C8C5" d="M437,587.016c0,7.724-6.261,13.984-13.984,13.984H13.984C6.261,601,0,594.739,0,587.016V339.984
	C0,332.261,6.261,326,13.984,326h409.031c7.724,0,13.984,6.261,13.984,13.984V587.016z"/>
<g>
	<g>
		<path fill="#17BBC8" d="M261.5,356c-6.627,0-12.5,4.873-12.5,11.5v194c0,6.627,5.873,12.5,12.5,12.5h133
			c6.627,0,11.5-5.873,11.5-12.5V404l-48-48H261.5z"/>
	</g>
</g>
<path fill="#FFC63E" d="M358,391.876c0,6.559,5.965,12.124,12.462,12.124H406l-48-48V391.876z"/>
<path fill="#C1C8C5" d="M397,27.47c0,7.722-5.882,13.53-13.605,13.53h-79.242C296.429,41,290,35.191,290,27.47V13.485
	C290,5.763,296.429,0,304.152,0h79.242C391.118,0,397,5.763,397,13.485V27.47z"/>
<path fill="#C1C8C5" d="M437,278.016c0,7.724-6.261,13.984-13.984,13.984H13.984C6.261,292,0,285.739,0,278.016V30.984
	C0,23.261,6.261,17,13.984,17h409.031C430.739,17,437,23.261,437,30.984V278.016z"/>
<g>
	<g>
		<path fill="#17BBC8" d="M261.5,47c-6.627,0-12.5,4.873-12.5,11.5v194c0,6.627,5.873,12.5,12.5,12.5h133
			c6.627,0,11.5-5.873,11.5-12.5V95l-48-48H261.5z"/>
	</g>
</g>
<path fill="#FFC63E" d="M358,82.876C358,89.435,363.965,95,370.462,95H406l-48-48V82.876z"/>
<path fill="#C1C8C5" d="M1230,336.47c0,7.722-5.882,13.53-13.605,13.53h-79.242c-7.724,0-14.152-5.809-14.152-13.53v-13.984
	c0-7.723,6.429-13.485,14.152-13.485h79.242c7.724,0,13.605,5.763,13.605,13.485V336.47z"/>
<path fill="#C1C8C5" d="M1270,587.016c0,7.724-6.261,13.984-13.984,13.984H846.984c-7.723,0-13.984-6.261-13.984-13.984V339.984
	c0-7.724,6.262-13.984,13.984-13.984h409.031c7.724,0,13.984,6.261,13.984,13.984V587.016z"/>
<g>
	<g>
		<path fill="#17BBC8" d="M1094.5,356c-6.627,0-12.5,4.873-12.5,11.5v194c0,6.627,5.873,12.5,12.5,12.5h133
			c6.627,0,11.5-5.873,11.5-12.5V404l-48-48H1094.5z"/>
	</g>
</g>
<path fill="#FFC63E" d="M1191,391.876c0,6.559,5.965,12.124,12.462,12.124H1239l-48-48V391.876z"/>
<g id="XMLID_1_">
	<g>
		<polygon fill="#82E3A6" points="798.339,447.821 798.339,432.554 823.162,463.5 798.339,494.446 798.339,479.179 450.152,479.179 
			450.152,478.767 450.152,462.262 450.152,447.821 		"/>
	</g>
	<g>
	</g>
</g>
<g id="XMLID_2_">
	<g>
		<polygon fill="#82E3A6" points="777.525,635.822 772.289,621.482 806.23,642.041 793.521,679.627 788.282,665.278 461.22,784.712 
			461.078,784.324 455.417,768.821 450.463,755.256 		"/>
	</g>
	<g>
	</g>
</g>
<g id="XMLID_3_">
	<g>
		<polygon fill="#82E3A6" points="796.38,257.425 801.616,243.084 814.318,280.667 780.387,301.222 785.623,286.881 458.56,167.452 
			458.701,167.064 464.362,151.561 469.315,137.996 		"/>
	</g>
	<g>
	</g>
</g>
</svg>
