<?xml version="1.0" encoding="utf-8"?>
<!-- Generator: Adobe Illustrator 16.0.0, SVG Export Plug-In . SVG Version: 6.00 Build 0)  -->
<!DOCTYPE svg PUBLIC "-//W3C//DTD SVG 1.1//EN" "http://www.w3.org/Graphics/SVG/1.1/DTD/svg11.dtd">
<svg version="1.1" id="Layer_1" xmlns="http://www.w3.org/2000/svg" xmlns:xlink="http://www.w3.org/1999/xlink" x="0px" y="0px"
	 width="771px" height="768px" viewBox="0 0 771 768" enable-background="new 0 0 771 768" xml:space="preserve">
<g>
	<path fill="none" d="M684.692,512.2c-1.692,1.679-1.702,4.412-0.022,6.104c1.682,1.689,4.413,1.7,6.106,0.019
		c1.689-1.68,1.699-4.41,0.02-6.103C689.118,510.527,686.385,510.52,684.692,512.2z"/>
	<path fill="#C1C8C5" d="M718.328,510h-45.259l-0.352,0.35l0.248,26.109l52.378,52.743l36.069-35.819L718.328,510z M690.776,518.322
		c-1.693,1.682-4.425,1.671-6.106-0.019c-1.68-1.691-1.67-4.425,0.022-6.104c1.692-1.681,4.426-1.673,6.104,0.02
		C692.476,513.912,692.466,516.643,690.776,518.322z"/>
</g>
<g>
	<circle fill="none" cx="652.332" cy="587.208" r="4.317"/>
	<path fill="#C1C8C5" d="M682.979,582h-45.367l-0.297,0.295l0.25,26.111l52.378,52.74l36.068-35.816L682.979,582z M655.374,590.27
		c-1.692,1.682-4.426,1.671-6.105-0.021c-1.679-1.689-1.67-4.424,0.021-6.104c1.693-1.679,4.426-1.671,6.104,0.021
		C657.074,585.858,657.065,588.589,655.374,590.27z"/>
</g>
<g>
	<circle fill="none" cx="587.237" cy="652.301" r="4.316"/>
	<path fill="#C1C8C5" d="M660.918,690.423l-52.38-52.741l-26.109-0.432L582,637.676v45.421l42.848,43.146L660.918,690.423z
		 M590.278,655.363c-1.691,1.684-4.423,1.673-6.104-0.02c-1.679-1.691-1.671-4.423,0.022-6.104c1.692-1.679,4.425-1.67,6.104,0.021
		C591.98,650.952,591.97,653.684,590.278,655.363z"/>
</g>
<g>
	<circle fill="none" cx="515.291" cy="687.703" r="4.317"/>
	<path fill="#C1C8C5" d="M588.971,725.825l-52.379-52.739l-26.108-0.434l-0.483,0.48v45.312l42.9,43.2L588.971,725.825z
		 M518.333,690.766c-1.691,1.682-4.425,1.671-6.104-0.021c-1.68-1.689-1.672-4.422,0.021-6.104c1.692-1.68,4.426-1.67,6.104,0.022
		C520.034,686.354,520.022,689.086,518.333,690.766z"/>
</g>
<path fill="#C1C8C5" d="M673.936,467.408L514.361,307.833L513,309.194V308h-88.507C417.2,308,411,318.011,411,331.13v1.158
	c0,13.117,6.198,24.712,13.491,24.712h70.516l144.67,144.668c5.169,5.171,16.999,1.884,26.32-7.438l0.822-0.824
	C676.144,484.083,679.108,472.579,673.936,467.408z"/>
<path fill="#C1C8C5" d="M638.535,539.355L478.958,379.779L478.737,380h-57.389c-4.244-2.463-10.184-4-16.834-4h-1.157
	c-7.827,0-14.627,2.127-18.841,5.391c-5.001,3.173-8.517,11.471-8.517,21.687v1.157c0,6.727,1.531,12.528,4,16.598v57.904
	l-0.397,0.397L539.18,638.709c5.17,5.171,16.999,1.883,26.321-7.44l0.824-0.823c9.322-9.322,12.285-20.826,7.115-25.996L428,459.008
	V427h29.66l146.615,146.615c5.17,5.17,16.997,1.883,26.319-7.44l0.823-0.822C640.74,556.029,643.704,544.525,638.535,539.355z"/>
<path fill="#C1C8C5" d="M501.494,639.852L355,493.357v-68.69c0-7.293-9.315-13.667-22.432-13.667h-1.159
	C318.291,411,307,417.376,307,424.667V515h1.122l159.112,159.111c5.172,5.171,16.999,1.883,26.321-7.438l0.823-0.824
	C503.7,656.526,506.665,645.022,501.494,639.852z"/>
<g>
	<path fill="#FFC100" d="M709.035,489.222l-26.108-0.432l-10.208,10.139l0.247,26.11l52.378,52.742l36.069-35.819L709.035,489.222z
		 M684.67,506.883c-1.68-1.691-1.67-4.424,0.022-6.104s4.424-1.67,6.104,0.02c1.68,1.693,1.67,4.425-0.02,6.104
		C689.083,508.586,686.352,508.575,684.67,506.883z"/>
</g>
<path fill="#31C9AF" d="M673.936,455.989L514.361,296.413L513,297.774V297h-81.265c-4.351-21.162-14.728-41.332-31.146-57.75
	c-17.075-17.073-38.207-27.598-60.289-31.624c9.629-52.041-5.672-107.789-45.923-148.042c-64.964-64.963-170.291-64.962-235.253,0
	c-64.962,64.963-64.963,170.29,0,235.254c40.252,40.251,96,55.552,148.042,45.922c4.024,22.083,14.55,43.215,31.623,60.287
	c16.279,16.279,36.246,26.62,57.211,31.036V515h0.702l159.112,159.111c5.17,5.171,16.997,1.883,26.32-7.438l0.822-0.824
	c9.323-9.322,12.287-20.826,7.117-25.997L344,493.778v-61.823c8.212-1.777,16.266-4.466,24-8.066V479h0.318l-0.134,0.134
	l159.577,159.575c5.171,5.171,16.997,1.883,26.319-7.44l0.824-0.823c9.322-9.322,12.285-20.826,7.116-25.996L417,459.428V416h41.08
	l146.195,146.194c5.17,5.171,16.997,1.884,26.319-7.439l0.823-0.823c9.322-9.323,12.286-20.826,7.117-25.997L479,368.4V368h-55.36
	c3.271-7.108,5.77-14.483,7.506-22h64.282l144.249,144.248c5.169,5.172,16.999,1.883,26.319-7.439l0.823-0.824
	C676.144,472.663,679.108,461.158,673.936,455.989z M222.415,292.688c-6.761,6.762-17.726,6.762-24.487,0
	c-6.762-6.761-6.762-17.726,0-24.486c6.762-6.762,17.724-6.761,24.486,0C229.175,274.964,229.177,285.926,222.415,292.688z
	 M267.412,223.205c-6.762-6.761-6.761-17.726,0-24.487c6.763-6.763,17.725-6.761,24.486,0c6.762,6.762,6.763,17.724,0,24.487
	C285.137,229.965,274.172,229.966,267.412,223.205z"/>
<g>
	<path fill="#FFC100" d="M673.632,561.167l-26.108-0.432l-10.208,10.141l0.25,26.109l52.378,52.743l36.068-35.819L673.632,561.167z
		 M649.269,578.83c-1.679-1.691-1.67-4.425,0.021-6.105c1.693-1.679,4.426-1.67,6.104,0.021c1.682,1.692,1.673,4.424-0.019,6.104
		C653.682,580.53,650.948,580.52,649.269,578.83z"/>
</g>
<g>
	<path fill="#FFC100" d="M597.118,637.682l-26.108-0.432l-10.208,10.141l0.249,26.109l52.379,52.742l36.067-35.819L597.118,637.682z
		 M572.755,655.344c-1.68-1.691-1.672-4.423,0.021-6.104c1.693-1.679,4.426-1.67,6.104,0.021c1.681,1.692,1.67,4.424-0.021,6.104
		C577.168,657.047,574.435,657.036,572.755,655.344z"/>
</g>
<g>
	<path fill="#FFC100" d="M525.171,673.086l-26.108-0.434l-10.208,10.139l0.25,26.111l52.378,52.742l36.069-35.819L525.171,673.086z
		 M500.809,690.744c-1.68-1.689-1.671-4.422,0.02-6.104c1.694-1.68,4.426-1.67,6.104,0.022c1.683,1.691,1.673,4.423-0.019,6.103
		C505.221,692.447,502.487,692.437,500.809,690.744z"/>
</g>
</svg>
