<?xml version="1.0" encoding="utf-8"?>
<!-- Generator: Adobe Illustrator 16.0.0, SVG Export Plug-In . SVG Version: 6.00 Build 0)  -->
<!DOCTYPE svg PUBLIC "-//W3C//DTD SVG 1.1//EN" "http://www.w3.org/Graphics/SVG/1.1/DTD/svg11.dtd">
<svg version="1.1" id="Layer_1" xmlns="http://www.w3.org/2000/svg" xmlns:xlink="http://www.w3.org/1999/xlink" x="0px" y="0px"
	 width="514px" height="504px" viewBox="0 0 514 504" enable-background="new 0 0 514 504" xml:space="preserve">
<rect x="24.952" y="262.846" transform="matrix(0.993 -0.118 0.118 0.993 -35.2268 5.8707)" fill="#3BB1D8" width="13.999" height="75"/>
<g>
	<path fill="#3BB1D8" d="M34.628,238.191l1.089,9.155c0.573,4.823-2.733,9.069-7.556,9.643l-2.183,0.26
		c-4.824,0.574-9.548-2.718-10.122-7.54l-1.04-8.741c-4.56,3.996-7.815,10.538-6.992,17.461
		c1.268,10.657,11.027,18.258,21.684,16.99c10.659-1.268,18.241-10.931,16.974-21.59C45.624,246.615,40.98,240.795,34.628,238.191z"
		/>
</g>
<path fill="#3BB1D8" d="M224.696,497.546c-5.553-1.08-9.69-7.054-8.61-12.604l6.518-33.505c1.08-5.551,7.042-8.958,12.594-7.878
	l5.862,1.14c5.55,1.08,9.126,6.344,8.046,11.895l-6.517,33.505c-1.08,5.55-6.481,9.669-12.032,8.589L224.696,497.546z"/>
<rect x="195.014" y="416.128" transform="matrix(-0.191 0.9816 -0.9816 -0.191 697.652 356.2557)" fill="#3BB1D8" width="14.001" height="99"/>
<path fill="#C1C8C5" d="M156.788,478.64l108.255-108.255l-1.144-1.144l0.812-0.002l0.001-60.066c0-4.947-6.79-9.173-15.692-9.173
	h-0.784c-8.899,0-16.701,4.287-16.702,9.235l0.065,47.914L133.454,455.3c-3.508,3.508-1.343,11.472,4.981,17.796l0.638,0.635
	C145.397,480.058,153.28,482.148,156.788,478.64z"/>
<path fill="#C1C8C5" d="M107.622,454.267l108.63-108.63l-0.015-0.015l-0.185-38.749c1.671-2.879,2.622-6.816,2.622-11.329
	l-0.046-0.738c0-5.31-1.466-9.899-3.681-12.758c-2.151-3.395-7.793-5.768-14.724-5.768l-0.791,0.006
	c-4.564,0.001-8.317,0.857-11.078,2.531l-39.102-0.181l-0.176-0.176L40.475,387.063c-3.508,3.509-1.623,11.69,4.702,18.016
	l0.559,0.559c6.324,6.325,14.538,8.296,18.046,4.789l98.67-98.671l21.509-0.205l-0.207,19.915l-99.467,99.468
	c-3.507,3.507-1.273,11.982,5.052,18.307l0.559,0.559C96.22,456.122,104.115,457.773,107.622,454.267z"/>
<path fill="#C1C8C5" d="M39.408,361.261l99.386-99.386l46.686,0.085c4.948,0.001,9.314-6.276,9.314-15.176l0.021-0.765
	c0-8.899-4.315-16.549-9.262-16.549l-61.409-0.125l-0.125,0.635L16.074,337.925c-3.509,3.509-0.907,11.688,5.417,18.011l0.559,0.56
	C28.374,362.819,35.9,364.769,39.408,361.261z"/>
<path fill="#31C9AF" d="M164.197,478.301L272.82,369.678l-0.806-0.806l0.344,0.183l-0.091-55.041
	c14.356-2.952,27.994-9.945,39.134-21.085c11.583-11.583,18.7-25.897,21.432-40.878c35.306,6.532,73.115-3.837,100.423-31.145
	c44.072-44.073,44.066-115.523-0.005-159.596c-44.073-44.072-115.532-44.07-159.605,0.003
	c-27.308,27.308-37.689,65.13-31.156,100.437c-14.981,2.73-29.319,9.872-40.901,21.454c-11.044,11.045-18.061,24.592-21.057,38.814
	l-56.213,0.038l0.038,0.515L16.412,330.517c-3.508,3.507-1.315,11.492,5.008,17.818l0.625,0.622
	c6.324,6.326,14.194,8.401,17.701,4.894l99.101-99.1l41.858-0.084c1.206,5.572,2.988,10.993,5.43,16.24l-37.394-0.037l-0.005,0.179
	l-0.366-0.366L40.07,378.983c-3.509,3.508-0.849,11.653,5.476,17.978l0.559,0.56c6.325,6.324,14.509,9.003,18.016,5.496
	l98.385-98.386l29.272-0.191l-0.192,27.68l-99.182,99.182c-3.508,3.508-1.273,11.245,5.051,17.569l0.559,0.559
	c6.324,6.325,14.218,8.714,17.726,5.206l108.232-108.231l0.155-0.116l-0.058-37.616c4.822,2.219,9.691,3.779,14.792,4.958
	l-0.135,43.477l-97.861,97.861c-3.508,3.508-1.298,11.973,5.025,18.296l0.56,0.56C152.773,480.146,160.69,481.809,164.197,478.301z
	 M275.102,172.097c-4.587-4.587-4.587-12.026,0-16.613c4.587-4.587,12.025-4.587,16.612,0.001c4.588,4.586,4.586,12.023,0,16.611
	C287.126,176.683,279.689,176.684,275.102,172.097z M322.241,202.623c4.587-4.587,12.025-4.586,16.612,0.001
	c4.588,4.588,4.588,12.024,0,16.611c-4.587,4.588-12.025,4.588-16.613,0C317.654,214.649,317.654,207.211,322.241,202.623z"/>
<path fill="#FFC100" d="M478.533,181.562l-7.617-10.394c32.795-26.302,43.264-70.473,28.047-107.673l-34.096,24.989l-26.601-36.295
	l34.021-24.936c-30.987-25.642-75.511-28.289-110.464-4.93l-7.461-10.18c-1.391-1.897-3.91-3.46-5.807-2.07l-0.043,0.031
	c-1.897,1.391-1.993,4.871-0.603,6.768l7.468,10.188l109.077,148.827l7.625,10.403c1.391,1.898,3.996,1.843,5.893,0.452l0.043-0.032
	C479.913,185.32,479.925,183.459,478.533,181.562z"/>
<path fill="#FFC100" stroke="#F0F0F0" stroke-width="5" stroke-miterlimit="10" d="M459.909,94.248l47.39-34.732
	c-2.606-6.77-6.495-13.794-11.209-20.227c-4.527-6.176-9.657-11.594-15.212-16.202l-47.569,34.865L459.909,94.248z"/>
</svg>
