<?xml version="1.0" encoding="utf-8"?>
<!-- Generator: Adobe Illustrator 16.0.0, SVG Export Plug-In . SVG Version: 6.00 Build 0)  -->
<!DOCTYPE svg PUBLIC "-//W3C//DTD SVG 1.1//EN" "http://www.w3.org/Graphics/SVG/1.1/DTD/svg11.dtd">
<svg version="1.1" id="Layer_1" xmlns="http://www.w3.org/2000/svg" xmlns:xlink="http://www.w3.org/1999/xlink" x="0px" y="0px"
	 width="544px" height="544px" viewBox="0 0 544 544" enable-background="new 0 0 544 544" xml:space="preserve">
<path fill="#76B24C" d="M544,434.796c0,13.92-11.285,25.204-25.205,25.204h-409.59C95.285,460,84,448.716,84,434.796V25.204
	C84,11.284,95.285,0,109.205,0h409.59C532.715,0,544,11.284,544,25.204V434.796z"/>
<path fill="#31C9AF" d="M502,476.788C502,490.707,490.707,502,476.788,502H67.212C53.292,502,42,490.707,42,476.788V67.212
	C42,53.292,53.292,42,67.212,42h409.576C490.707,42,502,53.292,502,67.212V476.788z"/>
<path fill="#3BB1D8" d="M460,518.795c0,13.92-11.284,25.205-25.204,25.205H25.204C11.284,544,0,532.715,0,518.795v-409.59
	C0,95.285,11.284,84,25.204,84h409.592C448.716,84,460,95.285,460,109.205V518.795z"/>
</svg>
