<?xml version="1.0" encoding="utf-8"?>
<!-- Generator: Adobe Illustrator 16.0.0, SVG Export Plug-In . SVG Version: 6.00 Build 0)  -->
<!DOCTYPE svg PUBLIC "-//W3C//DTD SVG 1.1//EN" "http://www.w3.org/Graphics/SVG/1.1/DTD/svg11.dtd">
<svg version="1.1" id="Layer_1" xmlns="http://www.w3.org/2000/svg" xmlns:xlink="http://www.w3.org/1999/xlink" x="0px" y="0px"
	 width="820px" height="371px" viewBox="0 0 820 371" enable-background="new 0 0 820 371" xml:space="preserve">
<path fill="#C1C8C5" d="M797,15.993c0,4.496-3.294,8.007-7.791,8.007h-46.134c-4.497,0-8.075-3.512-8.075-8.007V7.851
	C735,3.355,738.578,0,743.075,0h46.134C793.706,0,797,3.355,797,7.851V15.993z"/>
<path fill="#C1C8C5" d="M820,161.858c0,4.496-3.646,8.142-8.142,8.142H574.142c-4.497,0-8.142-3.646-8.142-8.142V18.142
	c0-4.497,3.645-8.142,8.142-8.142h237.717c4.496,0,8.142,3.645,8.142,8.142V161.858z"/>
<g>
	<g>
		<path fill="#17BBC8" d="M12.5,79C5.873,79,0,83.873,0,90.5v194c0,6.627,5.873,12.5,12.5,12.5h133c6.627,0,11.5-5.873,11.5-12.5
			V127l-48-48H12.5z"/>
	</g>
</g>
<path fill="#FFC63E" d="M109,114.876c0,6.559,5.965,12.124,12.462,12.124H157l-48-48V114.876z"/>
<path fill="#C1C8C5" d="M797,216.992c0,4.496-3.294,8.008-7.791,8.008h-46.134c-4.497,0-8.075-3.512-8.075-8.008v-8.141
	c0-4.496,3.578-7.851,8.075-7.851h46.134c4.497,0,7.791,3.355,7.791,7.851V216.992z"/>
<path fill="#C1C8C5" d="M820,362.858c0,4.496-3.646,8.142-8.142,8.142H574.142c-4.497,0-8.142-3.646-8.142-8.142V219.142
	c0-4.497,3.645-8.142,8.142-8.142h237.717c4.496,0,8.142,3.645,8.142,8.142V362.858z"/>
<g>
	<path fill="#FFC100" d="M73.198,127.285L55.964,127l-6.738,6.694l0.165,17.235l34.575,34.816l23.81-23.645L73.198,127.285z
		 M57.116,138.945c-1.108-1.117-1.103-2.921,0.014-4.031c1.118-1.108,2.921-1.102,4.029,0.014c1.11,1.117,1.104,2.92-0.013,4.029
		C60.029,140.067,58.225,140.06,57.116,138.945z"/>
</g>
<g>
	<path fill="#FF5C3E" d="M73.198,192.912l-17.234-0.285l-6.738,6.694l0.165,17.235l34.575,34.816l23.81-23.645L73.198,192.912z
		 M57.115,204.572c-1.108-1.117-1.103-2.921,0.014-4.031c1.118-1.108,2.921-1.102,4.029,0.014c1.11,1.117,1.104,2.92-0.013,4.029
		C60.028,205.694,58.224,205.687,57.115,204.572z"/>
</g>
<g>
	<path fill="#FF5C3E" d="M687.697,261.912l-17.234-0.285l-6.738,6.694l0.165,17.235l34.575,34.816l23.81-23.645L687.697,261.912z
		 M671.615,273.572c-1.108-1.117-1.103-2.922,0.014-4.031c1.117-1.107,2.922-1.102,4.029,0.015c1.109,1.117,1.104,2.921-0.014,4.028
		C674.528,274.694,672.725,274.688,671.615,273.572z"/>
</g>
<g>
	<path fill="#FFC100" d="M687.698,60.912l-17.234-0.285l-6.738,6.694l0.165,17.235l34.574,34.816l23.811-23.645L687.698,60.912z
		 M671.615,72.572c-1.107-1.117-1.102-2.921,0.014-4.031c1.118-1.108,2.922-1.102,4.029,0.014c1.109,1.117,1.104,2.92-0.013,4.029
		C674.529,73.694,672.725,73.687,671.615,72.572z"/>
</g>
<g id="XMLID_1_">
	<g>
		<polygon fill="#82E3A6" points="519.688,103.544 179.109,175.937 179.023,175.533 175.591,159.389 172.589,145.263 
			513.167,72.871 509.993,57.938 540.708,83.046 522.861,118.478 		"/>
	</g>
	<g>
	</g>
</g>
<g id="XMLID_2_">
	<g>
		<polygon fill="#82E3A6" points="513.175,303.13 172.597,230.737 172.683,230.334 176.114,214.19 179.117,200.064 519.695,272.456 
			522.869,257.523 540.716,292.954 510.001,318.063 		"/>
	</g>
	<g>
	</g>
</g>
</svg>
